<svg width="295" height="60" xmlns="http://www.w3.org/2000/svg" xmlns:svg="http://www.w3.org/2000/svg">
 <g class="layer" display="inline">
  <title>Layer 1</title>
  <path d="m177.23,23.81l0,4.79l14.04,0a1.75,1.75 0 0 1 0,3.49l-14.04,0l0,6.77a1.73,1.73 0 1 1 -3.46,0l0,-16.46a2.11,2.11 0 0 1 2.1,-2.12l15.43,0a1.75,1.75 0 0 1 0,3.5l-14.07,0l0,0.03zm19.27,13.56l0,-15.34a1.73,1.73 0 1 1 3.46,0l0,15.05l9.65,0a1.75,1.75 0 0 1 0,3.49l-9.94,0a3.16,3.16 0 0 1 -3.17,-3.2zm30.31,-17.09l-4.67,0a7.34,7.34 0 0 0 -7.3,7.36l0,5.61a7.34,7.34 0 0 0 7.3,7.36l4.67,0a7.34,7.34 0 0 0 7.3,-7.36l0,-5.61a7.37,7.37 0 0 0 -7.3,-7.36zm3.8,12.97a3.84,3.84 0 0 1 -3.83,3.86l-4.68,0a3.84,3.84 0 0 1 -3.83,-3.86l0,-5.61a3.84,3.84 0 0 1 3.83,-3.87l4.68,0a3.85,3.85 0 0 1 3.83,3.87l0,5.61zm48.55,-9.48l-6.26,0l0,15.05a1.73,1.73 0 1 1 -3.46,0l0,-15.05l-6.3,0a1.75,1.75 0 0 1 0,-3.49l16.02,0a1.75,1.75 0 0 1 0,3.49zm-18.57,16.58a1.81,1.81 0 0 0 0.59,-2.42l-10.2,-16.8a1.78,1.78 0 0 0 -1.47,-0.85a1.73,1.73 0 0 0 -1.48,0.85l-10.2,16.8a1.81,1.81 0 0 0 -0.03,1.78a1.7,1.7 0 0 0 1.51,0.9l10.2,0a1.75,1.75 0 0 0 0,-3.5l-7.11,0l7.11,-11.7l8.69,14.38a1.7,1.7 0 0 0 1.47,0.85a2.95,2.95 0 0 0 0.92,-0.29zm-111.8,1.63l9.36,-9.44l2.91,2.94a1.75,1.75 0 0 0 1.88,0.37a1.7,1.7 0 0 0 1.06,-1.64l0,-18.46a1.74,1.74 0 0 0 -1.72,-1.75l-18.31,0a1.75,1.75 0 0 0 -1.25,2.97l4.12,4.16a1.77,1.77 0 0 0 2.47,0a1.81,1.81 0 0 0 0,-2.48l-1.18,-1.19l12.42,0l0,12.48l-1.18,-1.19a1.77,1.77 0 0 0 -2.47,0l-10.57,10.67a1.81,1.81 0 0 0 0,2.49a1.73,1.73 0 0 0 1.21,0.52a1.34,1.34 0 0 0 1.25,-0.45z" fill="#333e52" id="svg_1"/>
  <path d="m19.2,23.26l0,5.12l14.17,0a1.87,1.87 0 0 1 0,3.73l-14.17,0l0,7.22a1.75,1.75 0 1 1 -3.5,0l0,-17.58a2.19,2.19 0 0 1 2.12,-2.26l15.58,0a1.87,1.87 0 0 1 0,3.73l-14.2,0l0,0.04zm21.16,-3.77a1.81,1.81 0 0 1 1.75,1.87l0,17.93a1.75,1.75 0 1 1 -3.5,0l0,-17.93a1.81,1.81 0 0 1 1.75,-1.87zm56.86,21.71a1.81,1.81 0 0 1 -1.74,-1.87l0,-17.93a1.93,1.93 0 0 1 0.52,-1.31a1.7,1.7 0 0 1 1.23,-0.56l7.92,0c5.47,0 9.78,4.76 9.78,10.84c0,5.87 -4.72,10.83 -10.3,10.83l-7.41,0zm7.4,-3.77a7.16,7.16 0 0 0 6.81,-7.1c0,-3.97 -2.75,-7.1 -6.25,-7.1l-6.17,0l0,14.2l5.61,0zm-25.66,-16.07a1.81,1.81 0 0 1 1.75,-1.87l9.49,0a1.87,1.87 0 0 1 0,3.73l-9.49,0a1.78,1.78 0 0 1 -1.75,-1.86zm11.27,16.07l-14.17,0l0,-5.36l14.17,0a1.87,1.87 0 0 0 0,-3.73l-15.95,0a0.96,0.96 0 0 0 -0.34,0.04a1.82,1.82 0 0 0 -1.41,1.83l0,9.08a1.85,1.85 0 0 0 0.3,1.03a2.04,2.04 0 0 0 0.48,0.52a1.76,1.76 0 0 0 0.97,0.32l15.95,0a1.81,1.81 0 0 0 1.75,-1.87a1.83,1.83 0 0 0 -1.75,-1.86zm-33.55,-5.4a2.51,2.51 0 0 0 0,-3.41l-8.07,-8.62a1.68,1.68 0 0 0 -2.11,-0.31a1.51,1.51 0 0 0 -0.67,0.71a1.98,1.98 0 0 0 0.3,2.27l7.17,7.65l-7.18,7.66a1.96,1.96 0 0 0 -0.3,2.27a1.51,1.51 0 0 0 0.67,0.71a1.68,1.68 0 0 0 2.12,-0.32l8.07,-8.61zm9.38,8.61a1.68,1.68 0 0 0 2.12,0.32a1.51,1.51 0 0 0 0.67,-0.72a2.04,2.04 0 0 0 -0.3,-2.26l-7.18,-7.66l7.18,-7.66a1.98,1.98 0 0 0 0.3,-2.26a1.51,1.51 0 0 0 -0.67,-0.71a1.68,1.68 0 0 0 -2.12,0.31l-8.07,8.62a2.51,2.51 0 0 0 0,3.41l8.07,8.61zm82.45,-12.82l-3.72,-3.97l-3.72,-3.96a1.72,1.72 0 0 0 -2.53,0l-4.76,5.07l-4.76,5.08l-1.48,-1.58l-1.49,-1.59a0.78,0.78 0 0 0 -0.89,-0.2a0.82,0.82 0 0 0 -0.53,0.79l0,17.63a0.97,0.97 0 0 0 0.26,0.63a0.85,0.85 0 0 0 0.6,0.28l16.51,0a0.77,0.77 0 0 0 0.74,-0.56a0.91,0.91 0 0 0 -0.18,-0.95l-1.79,-1.9l-1.78,-1.91l4.76,-5.08l4.76,-5.08a2.03,2.03 0 0 0 0.52,-1.35a1.96,1.96 0 0 0 -0.52,-1.35z" fill="#ea973d" id="svg_2"/>
 </g>
</svg>
